PathFileType	4	(X/Y/Z)	path1_05_0-945.trc
DataRate	CameraRate	NumFrames	NumMarkers	Units	OrigDataRate	OrigDataStartFrame	OrigNumFrames
30	30	8	22	m	30	590	945
Frame#	Time	Hip			RHip			RKnee			RAnkle			RBigToe			RSmallToe			RHeel			LHip			LKnee			LAnkle			LBigToe			LSmallToe			LHeel			Neck			Head			Nose			RShoulder			RElbow			RWrist			LShoulder			LElbow			LWrist		
		X1	Y1	Z1	X2	Y2	Z2	X3	Y3	Z3	X4	Y4	Z4	X5	Y5	Z5	X6	Y6	Z6	X7	Y7	Z7	X8	Y8	Z8	X9	Y9	Z9	X10	Y10	Z10	X11	Y11	Z11	X12	Y12	Z12	X13	Y13	Z13	X14	Y14	Z14	X15	Y15	Z15	X16	Y16	Z16	X17	Y17	Z17	X18	Y18	Z18	X19	Y19	Z19	X20	Y20	Z20	X21	Y21	Z21	X22	Y22	Z22
591	19.7	-1.1002567208853038	0.8258357407367063	0.2458989727919856	-1.0986453590972989	0.8166775126159989	0.33173110078194296	-0.9558547928345673	0.492926992036812	0.32125697894893934	-1.2197959422382145	0.20248829818574957	0.3130308766971954	-1.1332303410357476	0.044065863002883336	0.3414769907364405	-1.1658386159957512	0.0689708024962279	0.3874815749531924	-1.2869202269482283	0.16664917853073438	0.30711505250857096	-1.0874500510987524	0.8119869080192939	0.16245294035568908	-1.0676128853259501	0.4630522406779273	0.18699643852136352	-1.1574041410121667	0.10288262114121274	0.17206412851370448	-0.9881590393997121	0.0216831706821921	0.19726308001704715	-1.0168117867725248	0.024144336823287028	0.14124462424031764	-1.2129873476302573	0.03820676648043931	0.17323221430917743	-1.0681107749688419	1.4501905768837287	0.20847763797643137	-0.9746251045716523	1.7100431063861974	0.19780654528955163	-0.9232025907431944	1.5581486359958574	0.21332025783376724	-1.1237949108950285	1.3590657215990443	0.3668452153963667	-1.1348292033080691	1.0734336812998804	0.42035692326983964	-1.0407824150822227	0.8753613009104579	0.45947614698944017	-1.1034360339407547	1.3468266773549762	0.018303273562190803	-1.0429892707696515	1.0604722273776765	0.03011387564717769	-0.973803672677706	0.8705768984923584	0.01104103579275395
592	19.73333333333333	-1.0734386858082838	0.8268289139996249	0.24529414757536958	-1.0685336138364556	0.8184734544792458	0.3318562611357582	-0.9117495498206507	0.5015776214355714	0.3206638791536483	-1.132137059175266	0.1902892501428819	0.3170950732811143	-1.0204407458920721	0.044524706509538096	0.34039199701733935	-1.0535662478769896	0.06317084310053983	0.39016632860498623	-1.1962829770406467	0.142015124497818	0.31419790594467406	-1.0639445466051778	0.8124671278524662	0.1611720714498826	-1.060005404242427	0.46265046975508456	0.18571255284249527	-1.1572439364913099	0.10321142795603443	0.17132139914851977	-0.9894420444624712	0.01867462406704949	0.19781192535449127	-1.018790364552951	0.022543882273479726	0.14367240569097045	-1.2127086074860525	0.03733041620267187	0.1735738196073254	-1.040801089165562	1.449218000886285	0.2080311644187549	-0.9471478869955672	1.710043786681406	0.2012233673255952	-0.8959511577287945	1.5551851651013242	0.212031553209356	-1.098123505770264	1.358608002835205	0.36580845104645443	-1.1109170676305407	1.073574369545327	0.42408624610347306	-1.0166373910125304	0.8766806890649665	0.4590710163809628	-1.0722687378516815	1.3448427561190335	0.019975350792563146	-1.0064818123928831	1.0621765786589017	0.025594160933530837	-0.9365695241305363	0.8738494163712103	0.008230641227676153
593	19.766666666666666	-1.0452576879269209	0.8263997147919804	0.24494398486788987	-1.0366421089268447	0.8184685452298541	0.33184631263706765	-0.8741121353457462	0.5082186188640421	0.3208432355560648	-1.0413675291540003	0.17730804661180474	0.32185592699749577	-0.9041264771339721	0.0464510848622617	0.3397996449535216	-0.9379077343915418	0.05843063126359685	0.39183239299526496	-1.0996469509412572	0.11752846980862697	0.3217789372999242	-1.0400943122704476	0.8112238443769122	0.16117748654822903	-1.054111275177011	0.46334202829793664	0.1850024212794636	-1.1575273178564356	0.10303037208569225	0.16920018999575304	-0.9892552539879291	0.016225215070322235	0.1996619356652827	-1.0197323913582108	0.02120686090473252	0.14584866154451337	-1.2119585767650138	0.03636337669087902	0.1737336834874168	-1.0127710360137117	1.4472534585186658	0.2079984562375094	-0.9189375290646753	1.708149342025711	0.20590624982943095	-0.8679042152990399	1.5515417069250548	0.21207314821783949	-1.0711524309301226	1.3569447501438527	0.36579198894225373	-1.085955011845847	1.0721445794348075	0.427609583138458	-0.992404182394454	0.8755391376837142	0.4606278617998322	-1.0407472608721853	1.3421581518958718	0.02239452997149209	-0.9730161976917413	1.0627775006424853	0.023319422342067388	-0.900719171766998	0.8757788486437241	0.006900088717705864
594	19.8	-1.015689506379169	0.8245052586162284	0.24497490911629344	-1.0031746442395684	0.8165502781808675	0.33184380169113553	-0.8423867095209567	0.5120100843944788	0.3216310999101774	-0.9498447606898455	0.1650249071495095	0.32627052147868363	-0.7888932938746679	0.05052600692302668	0.3392212141131515	-0.8234157870665102	0.05635143339123743	0.3922296289585806	-0.9996316874046471	0.09571975906102577	0.32775150206768267	-1.016032354893996	0.8082221971835445	0.16261849843495224	-1.0496203510611786	0.46486192291846257	0.1845999507177502	-1.1580049698711128	0.10249400848723363	0.16655343098857253	-0.9881250251698894	0.014784392034425923	0.20226403060171183	-1.019586495666083	0.020184424046536628	0.14810375696548939	-1.2112502903963658	0.03473442652026982	0.17416152674896557	-0.9837977951835494	1.4443782836208288	0.20869517482915062	-0.8897039025307562	1.704542855383757	0.2109904656400473	-0.8385634249961361	1.5471773013347192	0.21350377002811027	-1.042466377253904	1.354159474492669	0.3670354015667482	-1.0595807687602352	1.0694785775650042	0.42975668282838314	-0.967839610430916	0.8719621160334172	0.46391711862774765	-1.0099425177393893	1.3393408726336844	0.024336271183710772	-0.9415564828372218	1.0623267239974585	0.022890403212054086	-0.866372884603146	0.8763658248552825	0.006936159314507846
595	19.83333333333333	-0.9847559170010667	0.8213757139471899	0.24551756499411054	-0.9687750441470563	0.8129549346307601	0.3321223490471351	-0.814999721804678	0.5120927154421033	0.32262957531755965	-0.860464493799836	0.15374581546155153	0.32932455408898376	-0.6803316581475058	0.0571351288798929	0.3383903707846465	-0.7157919660096086	0.05790367831774896	0.3916860610928482	-0.9004332979884131	0.07753536525411317	0.3302996892931087	-0.9914712635196679	0.803765659635674	0.1652420422156026	-1.0450175539670354	0.466480858454569	0.18438260808682555	-1.1582380730557496	0.1017307227065623	0.16462201143274424	-0.9865816506377875	0.01448451025904212	0.20488020227731552	-1.0187329112130694	0.01937811268210815	0.15049689798716567	-1.2107162102342952	0.032484417511148195	0.17513876534679973	-0.9536501752337742	1.440782372863873	0.21058741908562006	-0.859151876661448	1.699450472635507	0.216438036566038	-0.807460561420368	1.5420977594873526	0.2162764499281939	-1.0118710224594398	1.3505082817330076	0.36965682607966355	-1.03146060199383	1.065992756158754	0.43021475613517046	-0.9428026479471829	0.8664685385581191	0.46832242038724625	-0.9800676895874483	1.336867553773063	0.025503063075478734	-0.9114394945559132	1.0609616721269477	0.02376609013309555	-0.8337583909020896	0.8755789296628963	0.008233560029335639
596	19.866666666666667	-0.9524749901037369	0.8175393963953927	0.24663235478760379	-0.9339699341026287	0.8083307873753142	0.33299741167143837	-0.7894417807517954	0.5081954430502895	0.3235094519001809	-0.7768677854277158	0.14299659869756845	0.3303999605916648	-0.584306823794104	0.06570982310437234	0.337441566286352	-0.6210077767402776	0.06275692703230572	0.3909694841152721	-0.8073822445929664	0.0629687126540779	0.3285889071807112	-0.9655945333909002	0.7984791878541806	0.16859216154965237	-1.037777382654907	0.46726976935838216	0.18437509107135602	-1.1576331896318413	0.10122246167577281	0.16416312601284283	-0.9848250251243794	0.015189647764847752	0.2063948944538308	-1.0173356434284182	0.018860355096417942	0.15250321009054318	-1.2101742632791324	0.030436358242585625	0.17658807670476093	-0.9220024171177434	1.4367684953606608	0.21415938589698658	-0.8269635736765669	1.6933375599667004	0.22302650998516235	-0.7741432963674993	1.5364363837651838	0.22023719738085484	-0.9793261138077899	1.3464267940682015	0.37374220269540565	-1.001293728208557	1.061839983572579	0.4303665572692411	-0.9172209960840387	0.8598682868111222	0.4731773709720871	-0.9495600223176721	1.3346090625983413	0.02745304026893098	-0.8823809810304506	1.0588289444794354	0.025446448160278936	-0.803095358595453	0.8733925887897902	0.01065287314555192
597	19.9	-0.9187184035873707	0.8137278075656129	0.24839161308733104	-0.8986410545059101	0.8036037554689373	0.3346943070244483	-0.7630000175309986	0.5014103821090632	0.32434886101607896	-0.7030032072769801	0.13246357796611116	0.3296190382735618	-0.5050941902495206	0.07395919049373151	0.3363359060470559	-0.543211461478109	0.06870151061996138	0.3902922466000168	-0.7260006303573554	0.05169124520998799	0.3231965802233177	-0.9372296399303637	0.7931569974920825	0.17228033936117434	-1.0254068814929949	0.46663745355150815	0.18468368442837002	-1.1554578103918847	0.10193931342573356	0.16511770368145115	-0.9832857307541446	0.016469697104421734	0.2057807706662493	-1.0152828367544708	0.01883854719485275	0.15352819671516968	-1.2094555570328294	0.02973951975591518	0.17819668706436126	-0.8884894516593471	1.432710984210879	0.21971087673016282	-0.7928041221542357	1.6869598347425476	0.23180600370753793	-0.7382939952191421	1.5304365128932682	0.22525136584662317	-0.9449214851938949	1.342455115491367	0.37923268413879924	-0.9688643957058696	1.0569852278283232	0.4321937646587456	-0.8910045437604426	0.8530608403571817	0.47783426234858223	-0.916206849243768	1.3319711722047936	0.0323935325947872	-0.8542953366459364	1.0561457998832409	0.027487726565202104	-0.7744182981223064	0.8699450302808075	0.014022865972555466
598	19.933333333333334	-0.8832135737974002	0.8106543559271586	0.2509569672403453	-0.8621615903850058	0.7997150437324717	0.3372877194707777	-0.733727098171607	0.4940905403264926	0.32551670880693084	-0.6423197890214689	0.12250267677722089	0.32765953710645873	-0.44436867348618664	0.07853222925050314	0.33459168567004577	-0.48351107446173985	0.07233917791756621	0.38895244477443747	-0.6609360798661199	0.043330353941431476	0.3159122717478711	-0.9053311950241238	0.7886084272283251	0.17612415713250487	-1.0062875066465617	0.46454365390357544	0.18555518969075827	-1.1506992845433748	0.10494214272914243	0.16709758499397073	-0.9828603531774536	0.0177211553087433	0.20275128481263857	-1.012468627264645	0.01948440405102734	0.15353489393417794	-1.208242926508364	0.03167843597269247	0.17961212001089755	-0.8530295105694378	1.4290259121737463	0.2270890503204314	-0.756485536541157	1.6811802388583412	0.24326851866156587	-0.700196241258184	1.5245003867903808	0.2311907880851513	-0.9089613855011822	1.3391391615878288	0.38576432894792934	-0.9342212202022084	1.0514334424924252	0.4366807656960129	-0.8638659897515656	0.8468472260096628	0.48178423578988305	-0.8788837748429335	1.3285007588563653	0.04141055269616606	-0.8271940536131693	1.053306697619173	0.029510683576924497	-0.7475130425340077	0.8656577843295311	0.018209188250601072
